<svg width="240" height="14" viewBox="0 0 240 14" fill="none" xmlns="http://www.w3.org/2000/svg">
<path d="M28.8998 12.3247C28.8587 12.3247 28.8085 12.2972 28.7856 12.2605L25.4512 6.77983L23.6378 13.0493C23.6241 13.0906 23.583 13.1227 23.5419 13.1227H20.043C20.0019 13.1227 19.9791 13.0906 19.9928 13.0493L23.6835 1.31751C23.6972 1.28082 23.7383 1.24413 23.7794 1.24413H25.0949C25.136 1.24413 25.1863 1.27165 25.2091 1.30834L29.7037 8.30708L34.1983 1.30834C34.2212 1.27165 34.2714 1.24413 34.3125 1.24413H35.628C35.6691 1.24413 35.7102 1.27624 35.7239 1.31751L39.4146 13.0493C39.4284 13.0906 39.4055 13.1227 39.3644 13.1227H35.8655C35.8244 13.1227 35.7833 13.0906 35.7696 13.0493L33.9562 6.77983L30.6218 12.2605C30.599 12.2972 30.5487 12.3247 30.5076 12.3247H28.8998ZM20.1527 6.48172C20.1435 6.44503 20.1161 6.4221 20.0796 6.4221H10.1083C9.58302 6.4221 9.15366 6.85321 9.15366 7.38064C9.15366 7.90807 9.58302 8.33919 10.1083 8.33919H16.0326C15.3292 10.2104 12.9448 11.5863 10.1083 11.5863C6.71908 11.5863 3.96933 9.61877 3.96933 7.18802C3.96933 4.75726 6.71908 2.78514 10.1083 2.78514C11.9582 2.78514 13.6209 3.37219 14.7445 4.30321C14.7445 4.30321 14.7537 4.3078 14.7582 4.31239C14.7719 4.32156 14.7856 4.32615 14.7993 4.32615H18.8737C18.9148 4.32615 18.9468 4.29404 18.9468 4.25276C18.9468 4.23442 18.9377 4.22066 18.9285 4.2069C18.9285 4.2069 18.9285 4.20231 18.9194 4.19773C17.1882 2.34026 13.8904 1.0882 10.1083 1.0882C4.52659 1.0882 0 3.81706 0 7.18343C0 10.5498 4.52659 13.2787 10.1083 13.2787C15.69 13.2787 20.2166 10.5498 20.2166 7.18343C20.2166 6.94494 20.1938 6.71104 20.1481 6.47713L20.1527 6.48172ZM59.4075 7.18802C59.4075 10.5544 54.8809 13.2832 49.2991 13.2832C43.7174 13.2832 39.1908 10.5544 39.1908 7.18802C39.1908 3.82165 43.7128 1.0882 49.2991 1.0882C54.8854 1.0882 59.4075 3.81706 59.4075 7.18343V7.18802ZM55.4336 7.18802C55.4336 4.75726 52.6838 2.78972 49.2991 2.78972C45.9145 2.78972 43.1647 4.75726 43.1647 7.18802C43.1647 9.61877 45.9145 11.5863 49.2991 11.5863C52.6838 11.5863 55.4336 9.61877 55.4336 7.18802ZM60.8737 7.83469H64.7288L65.0851 6.54593H61.23L60.8737 7.83469ZM72.5578 11.9257L70.9637 12.5907L86.2472 1.24872H68.6616C67.2319 1.24872 66.0717 2.41365 66.0717 3.84917C66.0717 4.48208 66.3047 4.93154 66.3047 4.93154C69.5249 2.38613 74.3255 2.44575 76.952 2.44575L78.5461 1.78073L63.2672 13.1227H83.2645C84.6942 13.1227 85.8544 11.9578 85.8544 10.5223C85.8544 9.00879 85.256 8.18784 85.256 8.18784C82.6479 11.4166 77.4955 11.9257 72.567 11.9257H72.5578ZM133.377 3.51895C131.901 3.5373 130.444 3.87669 129.174 4.4408C128.215 3.8721 126.95 3.53271 125.479 3.51895C123.57 3.56023 120.628 4.49125 119.893 7.24764L118.271 13.1227H122.126L123.698 7.44026C123.885 6.7569 124.534 6.24323 125.388 6.24323C126.242 6.24323 126.607 6.7569 126.42 7.44026L124.849 13.1227H128.704L130.275 7.44026C130.463 6.7569 131.111 6.24323 131.965 6.24323C132.819 6.24323 133.185 6.7569 132.998 7.44026L131.426 13.1227H135.281L136.903 7.24764C137.689 4.49125 135.268 3.56023 133.377 3.51895ZM90.5454 11.3478C90.5454 10.2792 89.6821 9.41239 88.6179 9.41239C87.5536 9.41239 86.6903 10.2792 86.6903 11.3478C86.6903 12.4164 87.5536 13.2832 88.6179 13.2832C89.6821 13.2832 90.5454 12.4164 90.5454 11.3478ZM113.544 3.51436C109.711 3.51436 105.993 5.70663 105.249 8.39881C104.504 11.091 107.017 13.2832 110.849 13.2832C114.681 13.2832 118.399 11.091 119.144 8.39881C119.888 5.70663 117.376 3.51436 113.544 3.51436ZM115.357 8.39881C115.019 9.62336 113.325 10.6232 111.58 10.6232C109.835 10.6232 108.693 9.62336 109.031 8.39881C109.369 7.17426 111.064 6.17444 112.808 6.17444C114.553 6.17444 115.695 7.17426 115.357 8.39881ZM100.576 9.41239C99.8544 10.1324 98.6531 10.6232 97.429 10.6232C95.6841 10.6232 94.5422 9.62336 94.8802 8.39881C95.2182 7.17426 96.9128 6.17444 98.6577 6.17444C99.8179 6.17444 100.713 6.61931 101.079 7.27516H105.112C104.984 5.11958 102.673 3.51436 99.3885 3.51436C95.5562 3.51436 91.8381 5.70663 91.0936 8.39881C90.349 11.091 92.8613 13.2832 96.6936 13.2832C100.028 13.2832 103.285 11.623 104.559 9.41239H100.576Z" fill="#005BAC"/>
<path d="M147.633 7.06881C148.647 7.23391 149.309 7.49075 149.62 7.8439C149.931 8.19704 150.086 8.58229 150.086 9.00424V13.1228H146.742V9.49956C146.742 9.24731 146.619 9.03176 146.381 8.85747C146.258 8.77033 146.062 8.70154 145.797 8.65109C145.532 8.59605 145.185 8.57312 144.746 8.57312V5.94515C145.349 5.94515 145.788 5.84426 146.062 5.64704C146.336 5.44524 146.477 5.18382 146.477 4.85819C146.477 4.56008 146.368 4.31242 146.148 4.11521C145.92 3.93176 145.651 3.83544 145.335 3.83544C144.988 3.83544 144.701 3.97762 144.472 4.25739C144.248 4.54174 144.134 4.8215 144.134 5.11044V13.1228H140.699V5.58742C140.699 4.68391 140.868 3.89507 141.206 3.22087C141.54 2.54668 142.07 2.02843 142.791 1.65694C143.522 1.28544 144.431 1.10199 145.532 1.10199C146.276 1.10199 146.971 1.22123 147.601 1.46431C148.231 1.70739 148.743 2.05595 149.131 2.51917C149.524 2.98239 149.752 3.53274 149.825 4.17483L149.862 4.67474C149.862 6.07357 149.117 6.87159 147.633 7.07339V7.06881Z" fill="#D62825"/>
<path d="M155.472 1.08823V9.05468C155.472 9.42159 155.628 9.7197 155.947 9.9536C156.107 10.0728 156.276 10.1646 156.45 10.2288C156.619 10.293 156.82 10.3251 157.03 10.3251C157.414 10.3251 157.775 10.2059 158.108 9.97195C158.4 9.74722 158.546 9.43535 158.546 9.04092V1.08823H161.863V8.79785C161.863 9.04551 161.84 9.29776 161.794 9.55001C161.753 9.80684 161.684 10.0591 161.593 10.3022C161.42 10.7837 161.145 11.2378 160.776 11.6551C160.396 12.0771 159.88 12.4256 159.218 12.7054C158.889 12.843 158.537 12.9485 158.167 13.0173C157.797 13.0861 157.391 13.1182 156.952 13.1182C155.893 13.1182 155.002 12.9118 154.276 12.499C153.549 12.0862 153.02 11.5405 152.677 10.8709C152.503 10.5498 152.376 10.2104 152.284 9.86188C152.202 9.51332 152.156 9.14641 152.156 8.76116V1.08823H155.472Z" fill="#D62825"/>
<path d="M167.109 12.8476H163.82V2.40451C163.82 2.08346 163.903 1.79452 164.072 1.54228C164.245 1.29003 164.478 1.08823 164.78 0.941466C165.072 0.794703 165.392 0.716736 165.743 0.716736C166.209 0.716736 166.652 0.849739 167.073 1.11116C167.497 1.37717 167.872 1.77159 168.192 2.30361L171.06 7.34398V1.01943H174.349V11.2974C174.349 11.7973 174.184 12.2284 173.856 12.5816C173.522 12.9393 173.116 13.1182 172.622 13.1182C171.809 13.1182 171.088 12.5862 170.448 11.5267L167.109 5.85801V12.843V12.8476Z" fill="#D62825"/>
<path d="M183.49 1.29462V4.02807H180.219C179.699 4.02807 179.415 4.19318 179.37 4.52339C179.42 4.82151 179.653 5.08751 180.078 5.32141C180.503 5.5599 180.877 5.77088 181.201 5.9635C181.526 6.15613 181.823 6.33958 182.092 6.50927C182.59 6.84408 183.015 7.17888 183.348 7.51368C183.682 7.84848 183.937 8.19704 184.102 8.55478C184.275 8.91251 184.358 9.30694 184.358 9.72888C184.358 9.8894 184.349 10.0499 184.33 10.2196C184.312 10.3893 184.28 10.5636 184.234 10.7425C184.047 11.4671 183.59 12.045 182.85 12.4761C182.11 12.9072 181.124 13.1228 179.877 13.1228H176.099V10.3893H179.402C179.849 10.3893 180.187 10.3297 180.416 10.2104C180.649 10.0958 180.767 9.94444 180.767 9.76098C180.767 9.49956 180.63 9.284 180.366 9.10972C180.069 8.88499 179.534 8.52726 178.767 8.03194C178.42 7.79803 178.105 7.58248 177.821 7.37151C177.561 7.18347 177.333 7.00918 177.132 6.84408C176.784 6.55972 176.501 6.22492 176.282 5.83967C176.063 5.45442 175.953 5.00954 175.953 4.49588C175.953 4.32618 175.971 4.12438 176.008 3.89507C176.099 3.4135 176.314 2.96863 176.652 2.5742C176.985 2.17519 177.424 1.86332 177.972 1.63401C178.52 1.40469 179.105 1.29462 179.74 1.29462H183.481H183.49Z" fill="#D62825"/>
<path d="M189.601 1.29462V5.0233C189.601 5.92681 189.93 6.37627 190.583 6.37627C190.93 6.37627 191.195 6.27996 191.368 6.08733C191.546 5.89471 191.633 5.54156 191.633 5.0233V1.29462H194.936V5.38104C194.936 6.34875 194.689 7.12384 194.205 7.70631C193.716 8.28877 193.09 8.68778 192.341 8.90793V13.1228H189.025V8.90793C188.034 8.65568 187.33 8.20163 186.915 7.55496C186.495 6.9037 186.289 6.29372 186.289 5.72501V1.29462H189.605H189.601Z" fill="#D62825"/>
<path d="M204.351 1.29462V4.02807H201.085C200.569 4.02807 200.281 4.19318 200.236 4.52339C200.286 4.82151 200.519 5.08751 200.939 5.32141C201.364 5.5599 201.743 5.77088 202.067 5.9635C202.396 6.15613 202.688 6.33958 202.953 6.50927C203.451 6.84408 203.876 7.17888 204.214 7.51368C204.548 7.84848 204.803 8.19704 204.972 8.55478C205.137 8.91251 205.219 9.30694 205.219 9.72888C205.219 9.8894 205.21 10.0499 205.196 10.2196C205.178 10.3893 205.141 10.5636 205.1 10.7425C204.918 11.4671 204.456 12.045 203.716 12.4761C202.981 12.9072 201.994 13.1228 200.747 13.1228H196.97V10.3893H200.272C200.715 10.3893 201.058 10.3297 201.291 10.2104C201.519 10.0958 201.638 9.94444 201.638 9.76098C201.638 9.49956 201.505 9.284 201.236 9.10972C200.944 8.88499 200.409 8.52726 199.642 8.03194C199.295 7.79803 198.984 7.58248 198.696 7.37151C198.436 7.18347 198.203 7.00918 198.007 6.84408C197.659 6.55972 197.376 6.22492 197.157 5.83967C196.938 5.45442 196.828 5.00954 196.828 4.49588C196.828 4.32618 196.846 4.12438 196.883 3.89507C196.974 3.4135 197.189 2.96863 197.522 2.5742C197.856 2.17519 198.294 1.86332 198.847 1.63401C199.395 1.40469 199.98 1.29462 200.615 1.29462H204.351Z" fill="#D62825"/>
<path d="M205.949 1.29462H214.125V4.12897H211.677V13.1228H208.361V4.12897H205.949V1.29462Z" fill="#D62825"/>
<path d="M224.508 1.29462V4.02807C224.252 4.02807 223.85 4.03724 223.321 4.05559C222.786 4.07393 222.38 4.07852 222.092 4.07852C221.713 4.07852 221.388 4.08769 221.137 4.10604C220.881 4.12438 220.685 4.1519 220.553 4.18401C220.018 4.2849 219.612 4.45918 219.328 4.71143C219.041 4.96368 218.757 5.37186 218.465 5.94057H224.508V8.51809H218.465C218.744 9.06845 219.031 9.46746 219.324 9.71971C219.616 9.97195 220.027 10.1508 220.557 10.2563C220.767 10.2884 221.046 10.3113 221.393 10.3297C221.745 10.3434 222.083 10.3526 222.416 10.3526L224.508 10.3847V13.1182H220.767C220.05 13.1182 219.356 12.9852 218.671 12.7192C217.981 12.4532 217.36 12.0633 216.798 11.5451C216.236 11.0268 215.788 10.4122 215.46 9.69219C215.286 9.31152 215.158 8.93086 215.067 8.55019C214.975 8.16494 214.93 7.75217 214.93 7.31647C214.93 6.54597 215.071 5.79839 215.35 5.06917C215.624 4.33994 216.021 3.68868 216.524 3.12456C217.035 2.55586 217.638 2.11098 218.346 1.78535C219.063 1.45972 219.817 1.29462 220.612 1.29462H224.513H224.508Z" fill="#D62825"/>
<path d="M229.063 12.8843H225.906L226.975 3.40433C227.002 3.11539 227.044 2.85856 227.089 2.63841C227.135 2.41827 227.199 2.21647 227.272 2.0376C227.414 1.69363 227.656 1.41386 227.998 1.19831C228.158 1.10658 228.364 1.02861 228.61 0.973576C228.862 0.91854 229.149 0.891022 229.46 0.891022C230.31 0.891022 230.903 1.09741 231.246 1.501C231.593 1.90919 231.812 2.43203 231.908 3.06494L232.918 8.72906H232.995L233.977 2.99615C234.105 2.22106 234.393 1.67987 234.836 1.36341C235.279 1.04696 235.85 0.891022 236.549 0.891022C237.248 0.891022 237.837 1.07447 238.239 1.44138C238.595 1.79912 238.824 2.35865 238.924 3.12915L240.002 12.9164H236.892L236.279 3.37223L234.589 11.5359C234.539 11.8982 234.384 12.2514 234.133 12.6045C233.881 12.9485 233.516 13.1274 233.032 13.1274C232.598 13.1274 232.223 13.0081 231.926 12.7742C231.625 12.5403 231.438 12.233 231.365 11.8569L229.606 3.42268L229.063 12.8889V12.8843Z" fill="#D62825"/>
</svg>
